<?xml version="1.0" encoding="UTF-8" standalone="no"?>
<svg
   height="24"
   width="24"
   version="1.1"
   id="svg6"
   xmlns="http://www.w3.org/2000/svg"
   xmlns:svg="http://www.w3.org/2000/svg">
  <defs
     id="defs10" />
  <path
     color="#bebebe"
     d="M 11.5,5 C 11.223,5 11,5.223 11,5.5 v 4.875 L 9.281,8.875 C 8.968,8.602 8.523,8.655 8.251,8.969 a 0.753,0.753 0 0 0 0.062,1.062 L 10.563,12 8.313,13.969 A 0.753,0.753 0 0 0 8.25,15.031 c 0.273,0.313 0.718,0.367 1.031,0.094 l 1.72,-1.5 V 18.5 c 0,0.277 0.222,0.5 0.5,0.5 0.282,0 0.437,-0.02 0.655,-0.188 l 3.532,-3.156 A 0.78,0.78 0 0 0 15.906,15.281 0.745,0.745 0 0 0 15.938,15 0.723,0.723 0 0 0 15.906,14.844 0.78,0.78 0 0 0 15.688,14.469 l -2.813,-2.47 2.813,-2.468 a 0.78,0.78 0 0 0 0.218,-0.375 0.71,0.71 0 0 0 0,-0.437 0.78,0.78 0 0 0 -0.218,-0.375 L 12.156,5.187 C 11.957,5.027 11.729,5 11.5,5 Z M 12,7.063 14.094,8.938 12,10.75 Z m 0,6.187 2.094,1.813 L 12,16.938 Z"
     fill="#666"
     overflow="visible"
     style="font-variation-settings:normal;opacity:0.9;vector-effect:none;fill:#555761;fill-opacity:1;stroke:none;stroke-width:1;stroke-linecap:butt;stroke-linejoin:miter;stroke-miterlimit:4;stroke-dasharray:none;stroke-dashoffset:0;stroke-opacity:1;-inkscape-stroke:none;marker:none;stop-color:#000000"
     id="path2" />
  <rect
     style="font-variation-settings:normal;vector-effect:none;fill:#555761;fill-opacity:1;stroke:none;stroke-width:0.992;stroke-linecap:square;stroke-linejoin:miter;stroke-miterlimit:4;stroke-dasharray:none;stroke-dashoffset:0;stroke-opacity:1;-inkscape-stroke:none;marker:none;stop-color:#000000"
     id="rect2480-1-6-2-9-1-2-7-0"
     width="1.248"
     height="3.96"
     x="-0.16577788"
     y="7.5240593"
     rx="0.5"
     ry="0.5"
     transform="rotate(-45)" />
</svg>
