<?xml version="1.0" encoding="UTF-8" standalone="no"?>
<svg
   height="24"
   width="24"
   version="1.1"
   id="svg6"
   xmlns="http://www.w3.org/2000/svg"
   xmlns:svg="http://www.w3.org/2000/svg">
  <defs
     id="defs10" />
  <path
     id="path2"
     style="font-variation-settings:normal;opacity:0.75;vector-effect:none;fill:#555761;fill-opacity:1;stroke:none;stroke-width:1;stroke-linecap:butt;stroke-linejoin:miter;stroke-miterlimit:4;stroke-dasharray:none;stroke-dashoffset:0;stroke-opacity:1;-inkscape-stroke:none;marker:none;stop-color:#000000"
     d="M 11.5 5 C 11.223 5 11 5.2230009 11 5.5 L 11 9.4746094 L 12 10.474609 L 12 7.0625 L 14.09375 8.9375 L 12.148438 10.623047 L 12.726562 11.201172 C 12.922431 11.39704 12.922431 11.712335 12.726562 11.908203 L 11.769531 12.867188 C 11.573663 13.063056 11.258368 13.063056 11.0625 12.867188 L 10.367188 12.171875 L 8.3125 13.96875 A 0.753 0.753 0 0 0 8.25 15.03125 C 8.5229991 15.34425 8.9682509 15.398 9.28125 15.125 L 11.001953 13.625 L 11.001953 18.5 C 11.001953 18.777 11.223953 19 11.501953 19 C 11.783953 19 11.93825 18.9805 12.15625 18.8125 L 15.6875 15.65625 A 0.78 0.78 0 0 0 15.90625 15.28125 A 0.745 0.745 0 0 0 15.9375 15 A 0.723 0.723 0 0 0 15.90625 14.84375 A 0.78 0.78 0 0 0 15.6875 14.46875 L 12.875 11.998047 L 15.6875 9.53125 A 0.78 0.78 0 0 0 15.90625 9.15625 A 0.71 0.71 0 0 0 15.90625 8.71875 A 0.78 0.78 0 0 0 15.6875 8.34375 L 12.15625 5.1875 C 11.95725 5.0275006 11.729 5 11.5 5 z M 12 13.25 L 14.09375 15.0625 L 12 16.9375 L 12 13.25 z " />
  <rect
     style="font-variation-settings:normal;vector-effect:none;fill:#555761;fill-opacity:1;stroke:none;stroke-width:0.992;stroke-linecap:square;stroke-linejoin:miter;stroke-miterlimit:4;stroke-dasharray:none;stroke-dashoffset:0;stroke-opacity:1;-inkscape-stroke:none;marker:none;stop-color:#000000"
     id="rect2480-1-6-2-9"
     width="1.248"
     height="9.8999996"
     x="-0.16577816"
     y="7.5240593"
     rx="0.5"
     ry="0.5"
     transform="rotate(-45)" />
</svg>
