<?xml version="1.0" encoding="UTF-8" standalone="no"?>
<svg
   height="24"
   width="24"
   version="1.1"
   id="svg6"
   xmlns="http://www.w3.org/2000/svg"
   xmlns:svg="http://www.w3.org/2000/svg">
  <defs
     id="defs10" />
  <path
     id="path846"
     style="fill:#555761;marker:none;opacity:0.5"
     d="M 6.3183594 5 C 6.0405499 5.0005444 5.7857496 5.1546096 5.65625 5.4003906 L 5.6542969 5.4003906 C 4.5685687 7.4307553 4.0003585 9.6975709 4 12 C 4.000345 14.302426 4.5685872 16.56924 5.6542969 18.599609 L 5.65625 18.599609 C 5.7857573 18.845406 6.0405329 18.999473 6.3183594 19 C 6.7325722 19 7.0683594 18.664214 7.0683594 18.25 C 7.0680044 18.125073 7.0364524 18.002214 6.9765625 17.892578 C 6.0073241 16.079688 5.5001582 14.055722 5.5 12 C 5.5001573 9.944278 6.007325 7.9203124 6.9765625 6.1074219 C 7.0364523 5.9977864 7.0680048 5.8749266 7.0683594 5.75 C 7.0683594 5.3357872 6.7325722 5 6.3183594 5 z M 17.681641 5 C 17.267427 5 16.931641 5.3357872 16.931641 5.75 C 16.931996 5.8749266 16.963548 5.9977864 17.023438 6.1074219 C 17.992672 7.9203124 18.499843 9.944278 18.5 12 C 18.499842 14.055722 17.992677 16.079688 17.023438 17.892578 C 16.963548 18.002214 16.931991 18.125073 16.931641 18.25 C 16.931641 18.664214 17.267427 19 17.681641 19 C 17.959466 18.999473 18.214242 18.845406 18.34375 18.599609 L 18.345703 18.599609 C 19.431369 16.56924 19.999655 14.302426 20 12 C 19.999641 9.6975709 19.431428 7.4307553 18.345703 5.4003906 L 18.34375 5.4003906 C 18.214297 5.1546096 17.959449 5.0005444 17.681641 5 z " />
  <path
     id="path844"
     style="fill:#555761;marker:none"
     d="M 11.5 5 C 11.223 5 11 5.2230006 11 5.5 L 11 10.375 L 9.28125 8.875 C 8.9682506 8.6020006 8.5239527 8.6547506 8.2519531 8.96875 A 0.753 0.753 0 0 0 8.3125 10.03125 L 10.5625 12 L 8.3125 13.96875 A 0.753 0.753 0 0 0 8.25 15.03125 C 8.5229994 15.34425 8.9682506 15.398 9.28125 15.125 L 11.001953 13.625 L 11.001953 18.5 C 11.001953 18.777 11.223953 19 11.501953 19 C 11.783953 19 11.93825 18.9805 12.15625 18.8125 L 15.6875 15.65625 A 0.78 0.78 0 0 0 15.90625 15.28125 A 0.745 0.745 0 0 0 15.9375 15 A 0.723 0.723 0 0 0 15.90625 14.84375 A 0.78 0.78 0 0 0 15.6875 14.46875 L 12.875 11.998047 L 15.6875 9.53125 A 0.78 0.78 0 0 0 15.90625 9.15625 A 0.71 0.71 0 0 0 15.90625 8.71875 A 0.78 0.78 0 0 0 15.6875 8.34375 L 12.15625 5.1875 C 11.95725 5.0275004 11.729 5 11.5 5 z M 12 7.0625 L 14.09375 8.9375 L 12 10.75 L 12 7.0625 z M 12 13.25 L 14.09375 15.0625 L 12 16.9375 L 12 13.25 z " />
</svg>
